<?xml version="1.0" encoding="UTF-8"?><svg id="Layer_2" xmlns="http://www.w3.org/2000/svg" viewBox="0 0 540.15 71.82"><defs><style>.cls-1{letter-spacing:0em;}.cls-2{letter-spacing:0em;}.cls-3{letter-spacing:-.04em;}.cls-4{letter-spacing:-.03em;}.cls-5{letter-spacing:-.14em;}.cls-6{letter-spacing:-.01em;}.cls-7{font-size:53.67px;}.cls-7,.cls-8{fill:#9ea2a2;font-family:Gotham-Light, Gotham;}.cls-9{fill:#333;stroke:#9ea2a2;stroke-miterlimit:10;}.cls-10{fill:#1b1464;}.cls-8{font-size:25px;}.cls-11{letter-spacing:-.02em;}.cls-12{fill:#0c2340;}.cls-13{letter-spacing:-.09em;}</style></defs><g id="Layer_1-2"><g><text class="cls-7" transform="translate(74.33 55.32)"><tspan class="cls-13" x="0" y="0">T</tspan><tspan class="cls-3" x="29.95" y="0">A</tspan><tspan x="70.2" y="0">G</tspan></text><g><g><polygon class="cls-12" points="49.14 6.73 60.98 6.73 18.15 65.51 5.72 65.51 49.14 6.73"/><path class="cls-10" d="M49.14,6.73l11.84-.28h.55l-.32,.45-5.18,7.48c-9.65,13.26-27.65,37.94-37.47,51.44l-.15,.21H4.73l.59-.8C17.88,48.29,36.22,23.05,49.14,6.73h0Zm0,0c-6.08,8.7-15.1,21.41-21.39,29.77L6.13,65.81l-.4-.8h12.43l-.4,.21c7.12-9.77,25.25-34.65,32.12-44.09,2.62-3.68,8.09-11.01,10.88-14.57l.23,.45-11.84-.28h0Z"/></g><g><g><line class="cls-10" y1="1.02" x2="56.15" y2="71.82"/><path class="cls-12" d="M0,1.02c3.16,2.3,6.07,4.79,9,7.28,2.3,2.98,4.67,5.91,7,8.87l14.04,17.7c4.62,5.83,16.58,20.91,21.06,26.55,1.74,3.42,3.51,6.83,5.06,10.4-3.13-2.33-6.04-4.82-8.98-7.3-4.42-5.57-16.47-20.77-21.06-26.55L12.08,20.28c-2.35-2.94-4.66-5.92-7.04-8.83C3.29,8.03,1.52,4.62,0,1.02H0Z"/></g><g><line class="cls-10" x1="10.46" y1="0" x2="66.62" y2="70.8"/><path class="cls-12" d="M10.46,0c3.16,2.3,6.07,4.79,9,7.28,2.3,2.98,4.67,5.91,7,8.87l14.04,17.7c4.62,5.83,16.58,20.91,21.06,26.55,1.74,3.42,3.51,6.83,5.06,10.4-3.13-2.33-6.04-4.82-8.98-7.3-4.42-5.57-16.47-20.77-21.06-26.55l-14.04-17.7c-2.35-2.94-4.66-5.92-7.04-8.83-1.76-3.41-3.52-6.82-5.04-10.42h0Z"/></g></g></g></g><text class="cls-8" transform="translate(268.61 27.9)"><tspan class="cls-2" x="0" y="0">X</tspan><tspan class="cls-11" x="17.8" y="0">a</tspan><tspan class="cls-1" x="31.65" y="0">vier </tspan><tspan class="cls-5" x="84.52" y="0">T</tspan><tspan x="97.35" y="0">echnical </tspan><tspan x="0" y="30">App</tspan><tspan class="cls-4" x="52.75" y="30">r</tspan><tspan x="62.12" y="30">enti</tspan><tspan class="cls-6" x="108.27" y="30">c</tspan><tspan class="cls-1" x="122.17" y="30">eship G</tspan><tspan class="cls-4" x="214.35" y="30">r</tspan><tspan x="223.72" y="30">oup</tspan></text><line class="cls-9" x1="225.5" y1="12.11" x2="225.5" y2="59.11"/></g></svg>