<?xml version="1.0" encoding="UTF-8"?><svg id="Layer_2" xmlns="http://www.w3.org/2000/svg" viewBox="0 0 538.65 71.82"><defs><style>.cls-1{fill:#9ea2a2;}.cls-2{fill:#333;stroke:#9ea2a2;stroke-miterlimit:10;}.cls-3{fill:#1b1464;}.cls-4{fill:#0c2340;}</style></defs><g id="Layer_1-2"><g><g><g><path class="cls-1" d="M93.11,20.27V55.32h-2.79V20.27h-13.1v-2.52h28.98v2.52h-13.1Z"/><path class="cls-1" d="M141.26,55.32l-4.78-10.52h-22.17l-4.78,10.52h-2.9l17.5-37.84h2.68l17.5,37.84h-3.06Zm-15.83-34.78l-9.93,21.74h19.81l-9.88-21.74Z"/><path class="cls-1" d="M175.74,54.28c-2.52,1.12-5.32,1.69-8.4,1.69s-5.63-.51-7.97-1.53c-2.34-1.02-4.32-2.41-5.93-4.16-1.61-1.75-2.84-3.8-3.7-6.15-.86-2.34-1.29-4.84-1.29-7.49v-.11c0-2.54,.44-4.98,1.32-7.33,.88-2.34,2.13-4.41,3.76-6.2,1.63-1.79,3.59-3.22,5.88-4.29,2.29-1.07,4.83-1.61,7.62-1.61,1.54,0,2.94,.11,4.21,.32,1.27,.21,2.45,.54,3.54,.97,1.09,.43,2.13,.95,3.11,1.56,.98,.61,1.94,1.31,2.87,2.09l-1.83,2.09c-1.47-1.29-3.14-2.36-5.02-3.22-1.88-.86-4.23-1.29-7.06-1.29-2.29,0-4.38,.45-6.28,1.34-1.9,.89-3.53,2.11-4.91,3.64-1.38,1.54-2.44,3.32-3.19,5.36-.75,2.04-1.13,4.18-1.13,6.43v.11c0,2.43,.37,4.68,1.1,6.75,.73,2.07,1.8,3.86,3.19,5.36,1.39,1.5,3.09,2.68,5.07,3.54,1.99,.86,4.23,1.29,6.74,1.29,1.18,0,2.34-.12,3.49-.35,1.14-.23,2.23-.54,3.25-.94,1.02-.39,1.98-.85,2.87-1.36,.89-.52,1.68-1.06,2.36-1.63v-10.75h-12.56v-2.52h15.24v14.45c-1.72,1.5-3.84,2.81-6.36,3.94Z"/></g><g><g><polygon class="cls-4" points="49.14 6.73 60.98 6.73 18.15 65.51 5.72 65.51 49.14 6.73"/><path class="cls-3" d="M49.14,6.73l11.84-.28h.55l-.32,.45-5.18,7.48c-9.65,13.26-27.65,37.94-37.47,51.44l-.15,.21H4.73l.59-.8C17.88,48.29,36.22,23.05,49.14,6.73h0Zm0,0c-6.08,8.7-15.1,21.41-21.39,29.77L6.13,65.81l-.4-.8h12.43l-.4,.21c7.12-9.77,25.25-34.65,32.12-44.09,2.62-3.68,8.09-11.01,10.88-14.57l.23,.45-11.84-.28h0Z"/></g><g><g><line class="cls-3" y1="1.02" x2="56.15" y2="71.82"/><path class="cls-4" d="M0,1.02c3.16,2.3,6.07,4.79,9,7.28,2.3,2.98,4.67,5.91,7,8.87l14.04,17.7c4.62,5.83,16.58,20.91,21.06,26.55,1.74,3.42,3.51,6.83,5.06,10.4-3.13-2.33-6.04-4.82-8.98-7.3-4.42-5.57-16.47-20.77-21.06-26.55L12.08,20.28c-2.35-2.94-4.66-5.92-7.04-8.83C3.29,8.03,1.52,4.62,0,1.02H0Z"/></g><g><line class="cls-3" x1="10.46" y1="0" x2="66.62" y2="70.8"/><path class="cls-4" d="M10.46,0c3.16,2.3,6.07,4.79,9,7.28,2.3,2.98,4.67,5.91,7,8.87l14.04,17.7c4.62,5.83,16.58,20.91,21.06,26.55,1.74,3.42,3.51,6.83,5.06,10.4-3.13-2.33-6.04-4.82-8.98-7.3-4.42-5.57-16.47-20.77-21.06-26.55l-14.04-17.7c-2.35-2.94-4.66-5.92-7.04-8.83-1.76-3.41-3.52-6.82-5.04-10.42h0Z"/></g></g></g></g><g><path class="cls-1" d="M283.83,27.9l-6.23-8.08-6.2,8.08h-1.53l6.98-8.92-6.73-8.58h1.55l5.97,7.7,5.95-7.7h1.52l-6.7,8.55,6.95,8.95h-1.55Z"/><path class="cls-1" d="M297.48,27.9v-2.13c-.22,.3-.48,.6-.79,.89s-.66,.55-1.06,.77c-.4,.23-.85,.41-1.36,.55-.51,.14-1.06,.21-1.66,.21s-1.19-.08-1.78-.25c-.58-.17-1.11-.42-1.58-.75-.47-.33-.85-.75-1.14-1.25-.29-.5-.44-1.08-.44-1.75v-.05c0-.67,.14-1.26,.41-1.78,.28-.52,.65-.95,1.14-1.3,.48-.35,1.07-.62,1.75-.8,.68-.18,1.44-.28,2.27-.28,.9,0,1.68,.05,2.33,.15,.65,.1,1.28,.23,1.9,.4v-.55c0-1.29-.37-2.26-1.11-2.91-.74-.65-1.77-.97-3.09-.97-.78,0-1.5,.1-2.15,.29-.65,.19-1.27,.44-1.85,.74l-.45-1.08c.7-.34,1.41-.61,2.13-.82s1.52-.31,2.4-.31c1.65,0,2.95,.42,3.9,1.25,.95,.83,1.43,2.08,1.43,3.75v7.95h-1.2Zm.02-6.23c-.53-.13-1.16-.26-1.88-.39-.72-.12-1.53-.19-2.45-.19-1.35,0-2.39,.27-3.11,.81-.72,.54-1.09,1.26-1.09,2.15v.05c0,.46,.1,.88,.3,1.23,.2,.36,.47,.66,.81,.91s.74,.44,1.19,.57,.92,.2,1.4,.2c.65,0,1.27-.1,1.85-.29,.58-.19,1.1-.46,1.54-.8,.44-.34,.79-.75,1.05-1.23,.26-.48,.39-1.01,.39-1.59v-1.44Z"/><path class="cls-1" d="M308.06,28h-1.05l-5.72-12.85h1.43l4.82,11.38,4.88-11.38h1.38l-5.72,12.85Z"/><path class="cls-1" d="M317.16,11.83v-1.67h1.52v1.67h-1.52Zm.15,16.08V15.15h1.23v12.75h-1.23Z"/><path class="cls-1" d="M324.31,24.14c.3,.61,.68,1.14,1.13,1.57s.96,.76,1.54,.98c.58,.22,1.18,.34,1.82,.34,1,0,1.85-.19,2.54-.58,.69-.38,1.31-.86,1.84-1.42l.85,.75c-.65,.7-1.39,1.28-2.22,1.74-.83,.46-1.85,.69-3.07,.69-.83,0-1.63-.16-2.39-.47-.76-.32-1.43-.77-2-1.35-.58-.58-1.03-1.28-1.37-2.1-.33-.82-.5-1.72-.5-2.72v-.05c0-.92,.15-1.78,.46-2.59s.73-1.51,1.28-2.11c.54-.6,1.18-1.08,1.91-1.43,.73-.35,1.53-.52,2.4-.52s1.71,.17,2.42,.51,1.33,.81,1.84,1.41,.9,1.3,1.18,2.11c.27,.81,.41,1.69,.41,2.64v.28s0,.13-.03,.22h-10.57c.05,.8,.22,1.5,.53,2.11Zm8.77-3.21c-.05-.65-.18-1.27-.39-1.86-.21-.59-.5-1.12-.88-1.57-.38-.46-.84-.83-1.39-1.1-.55-.27-1.2-.41-1.93-.41-.64,0-1.23,.13-1.78,.38-.55,.25-1.03,.6-1.44,1.04-.41,.44-.75,.97-1.01,1.58s-.43,1.26-.48,1.96h9.3Z"/><path class="cls-1" d="M344.71,16.3c-.73,0-1.43,.14-2.1,.41-.67,.28-1.25,.68-1.76,1.22-.51,.54-.91,1.21-1.21,2-.3,.79-.45,1.71-.45,2.74v5.22h-1.22V15.15h1.22v3.63c.25-.57,.57-1.09,.95-1.58,.38-.48,.82-.9,1.3-1.24s1.01-.6,1.59-.78c.58-.17,1.18-.25,1.81-.24v1.35h-.13Z"/><path class="cls-1" d="M361.88,11.58V27.9h-1.3V11.58h-6.1v-1.17h13.5v1.17h-6.1Z"/><path class="cls-1" d="M369.23,24.14c.3,.61,.68,1.14,1.13,1.57s.96,.76,1.54,.98c.58,.22,1.18,.34,1.82,.34,1,0,1.85-.19,2.54-.58,.69-.38,1.31-.86,1.84-1.42l.85,.75c-.65,.7-1.39,1.28-2.22,1.74s-1.85,.69-3.07,.69c-.84,0-1.63-.16-2.39-.47-.76-.32-1.43-.77-2-1.35-.58-.58-1.03-1.28-1.37-2.1s-.5-1.72-.5-2.72v-.05c0-.92,.15-1.78,.46-2.59s.73-1.51,1.28-2.11c.54-.6,1.18-1.08,1.91-1.43,.73-.35,1.53-.52,2.4-.52s1.71,.17,2.42,.51,1.33,.81,1.84,1.41c.51,.6,.9,1.3,1.17,2.11,.28,.81,.41,1.69,.41,2.64v.28s0,.13-.02,.22h-10.58c.05,.8,.23,1.5,.53,2.11Zm8.77-3.21c-.05-.65-.18-1.27-.39-1.86-.21-.59-.5-1.12-.88-1.57-.38-.46-.84-.83-1.39-1.1-.55-.27-1.2-.41-1.93-.41-.64,0-1.23,.13-1.78,.38s-1.03,.6-1.44,1.04c-.41,.44-.75,.97-1.01,1.58-.27,.61-.43,1.26-.48,1.96h9.3Z"/><path class="cls-1" d="M391.47,27.48c-.83,.48-1.82,.72-2.99,.72-.92,0-1.77-.18-2.56-.54-.79-.36-1.48-.84-2.06-1.44-.58-.6-1.04-1.3-1.36-2.1-.33-.8-.49-1.65-.49-2.55v-.05c0-.9,.16-1.75,.49-2.55,.33-.8,.78-1.51,1.36-2.13s1.27-1.1,2.06-1.46c.79-.36,1.65-.54,2.56-.54,.6,0,1.15,.06,1.64,.19,.49,.13,.95,.3,1.36,.52,.42,.22,.79,.47,1.14,.76s.66,.58,.96,.9l-.88,.9c-.55-.57-1.16-1.06-1.82-1.47-.67-.42-1.48-.63-2.43-.63-.73,0-1.41,.14-2.04,.42s-1.17,.67-1.63,1.16c-.46,.49-.82,1.07-1.09,1.73-.27,.66-.4,1.38-.4,2.14v.05c0,.76,.14,1.48,.41,2.15s.65,1.26,1.13,1.75c.48,.5,1.03,.89,1.66,1.17,.63,.28,1.32,.42,2.05,.42,.9,0,1.71-.2,2.41-.61s1.33-.91,1.86-1.51l.85,.75c-.65,.73-1.39,1.34-2.21,1.83Z"/><path class="cls-1" d="M406.86,27.9v-7.58c0-1.32-.35-2.37-1.05-3.16-.7-.79-1.7-1.19-3-1.19-.63,0-1.22,.11-1.75,.34-.53,.23-1,.54-1.4,.94s-.71,.88-.94,1.44c-.23,.56-.34,1.17-.34,1.84v7.38h-1.22V9.65h1.22v7.88c.43-.75,1.02-1.38,1.75-1.9,.73-.52,1.68-.77,2.85-.77,.8,0,1.52,.13,2.15,.39,.63,.26,1.17,.62,1.61,1.09,.44,.47,.78,1.02,1,1.66,.23,.64,.34,1.35,.34,2.11v7.8h-1.22Z"/><path class="cls-1" d="M422.18,27.9v-7.58c0-1.32-.35-2.37-1.05-3.16s-1.7-1.19-3-1.19c-.63,0-1.22,.11-1.75,.34-.53,.23-1,.54-1.4,.94s-.71,.88-.94,1.44c-.23,.56-.34,1.17-.34,1.84v7.38h-1.22V15.15h1.22v2.38c.43-.75,1.02-1.38,1.75-1.9,.73-.52,1.68-.77,2.85-.77,.8,0,1.52,.13,2.15,.39,.63,.26,1.17,.62,1.61,1.09,.44,.47,.77,1.02,1,1.66s.34,1.35,.34,2.11v7.8h-1.22Z"/><path class="cls-1" d="M427.83,11.83v-1.67h1.53v1.67h-1.53Zm.15,16.08V15.15h1.22v12.75h-1.22Z"/><path class="cls-1" d="M442.62,27.48c-.83,.48-1.82,.72-2.99,.72-.92,0-1.77-.18-2.56-.54-.79-.36-1.48-.84-2.06-1.44-.58-.6-1.04-1.3-1.36-2.1-.33-.8-.49-1.65-.49-2.55v-.05c0-.9,.16-1.75,.49-2.55,.33-.8,.78-1.51,1.36-2.13,.58-.62,1.27-1.1,2.06-1.46,.79-.36,1.65-.54,2.56-.54,.6,0,1.15,.06,1.64,.19,.49,.13,.95,.3,1.36,.52,.42,.22,.8,.47,1.14,.76,.34,.28,.66,.58,.96,.9l-.88,.9c-.55-.57-1.16-1.06-1.83-1.47-.67-.42-1.47-.63-2.42-.63-.73,0-1.41,.14-2.04,.42s-1.17,.67-1.63,1.16c-.46,.49-.82,1.07-1.09,1.73-.27,.66-.4,1.38-.4,2.14v.05c0,.76,.14,1.48,.41,2.15s.65,1.26,1.13,1.75c.47,.5,1.03,.89,1.66,1.17s1.32,.42,2.05,.42c.9,0,1.7-.2,2.41-.61,.71-.41,1.33-.91,1.86-1.51l.85,.75c-.65,.73-1.39,1.34-2.21,1.83Z"/><path class="cls-1" d="M457.05,27.9v-2.13c-.22,.3-.48,.6-.79,.89-.31,.29-.66,.55-1.06,.77-.4,.23-.86,.41-1.36,.55-.51,.14-1.06,.21-1.66,.21s-1.19-.08-1.78-.25c-.58-.17-1.11-.42-1.57-.75-.47-.33-.85-.75-1.14-1.25-.29-.5-.44-1.08-.44-1.75v-.05c0-.67,.14-1.26,.41-1.78,.27-.52,.65-.95,1.14-1.3,.48-.35,1.07-.62,1.75-.8s1.44-.28,2.28-.28c.9,0,1.67,.05,2.32,.15s1.28,.23,1.9,.4v-.55c0-1.29-.37-2.26-1.11-2.91-.74-.65-1.77-.97-3.09-.97-.78,0-1.5,.1-2.15,.29-.65,.19-1.27,.44-1.85,.74l-.45-1.08c.7-.34,1.41-.61,2.13-.82s1.52-.31,2.4-.31c1.65,0,2.95,.42,3.9,1.25,.95,.83,1.42,2.08,1.42,3.75v7.95h-1.2Zm.03-6.23c-.53-.13-1.16-.26-1.88-.39-.72-.12-1.53-.19-2.45-.19-1.35,0-2.39,.27-3.11,.81-.73,.54-1.09,1.26-1.09,2.15v.05c0,.46,.1,.88,.3,1.23,.2,.36,.47,.66,.81,.91,.34,.25,.74,.44,1.19,.57s.92,.2,1.4,.2c.65,0,1.27-.1,1.85-.29s1.1-.46,1.54-.8c.44-.34,.79-.75,1.05-1.23,.26-.48,.39-1.01,.39-1.59v-1.44Z"/><path class="cls-1" d="M462.83,27.9V9.65h1.23V27.9h-1.23Z"/><path class="cls-1" d="M285.83,57.9l-2.23-4.9h-10.33l-2.22,4.9h-1.35l8.15-17.63h1.25l8.15,17.63h-1.42Zm-7.38-16.2l-4.63,10.13h9.22l-4.6-10.13Z"/><path class="cls-1" d="M302.82,54.31c-.36,.83-.83,1.53-1.41,2.1s-1.25,1.02-1.99,1.33c-.74,.31-1.5,.46-2.26,.46-.63,0-1.22-.08-1.75-.25-.53-.17-1.01-.39-1.44-.67-.42-.28-.81-.61-1.15-.97-.34-.37-.65-.75-.91-1.15v6.75h-1.22v-16.75h1.22v2.85c.27-.42,.58-.82,.93-1.2,.35-.38,.74-.72,1.16-1,.42-.28,.9-.51,1.42-.69,.52-.18,1.1-.26,1.74-.26,.77,0,1.52,.15,2.26,.45,.74,.3,1.4,.73,1.99,1.3s1.05,1.26,1.41,2.09c.36,.83,.54,1.75,.54,2.79v.05c0,1.03-.18,1.96-.54,2.79Zm-.76-2.79c0-.83-.13-1.59-.4-2.28-.27-.68-.63-1.26-1.09-1.74-.46-.47-.99-.84-1.6-1.1s-1.25-.39-1.92-.39-1.32,.13-1.94,.4-1.18,.64-1.67,1.13-.87,1.06-1.17,1.72c-.29,.67-.44,1.41-.44,2.22v.05c0,.82,.15,1.56,.44,2.24,.29,.67,.68,1.25,1.17,1.72,.48,.48,1.04,.85,1.67,1.11,.63,.27,1.27,.4,1.94,.4s1.36-.13,1.97-.38c.61-.25,1.14-.61,1.59-1.08,.45-.47,.8-1.04,1.06-1.71,.26-.68,.39-1.44,.39-2.29v-.05Z"/><path class="cls-1" d="M319.32,54.31c-.36,.83-.83,1.53-1.41,2.1-.58,.58-1.25,1.02-1.99,1.33-.74,.31-1.5,.46-2.26,.46-.63,0-1.22-.08-1.75-.25-.53-.17-1.01-.39-1.44-.67-.43-.28-.81-.61-1.15-.97-.34-.37-.65-.75-.91-1.15v6.75h-1.22v-16.75h1.22v2.85c.27-.42,.57-.82,.92-1.2,.35-.38,.74-.72,1.16-1,.42-.28,.9-.51,1.42-.69,.53-.18,1.1-.26,1.74-.26,.77,0,1.52,.15,2.26,.45,.74,.3,1.4,.73,1.99,1.3,.58,.57,1.05,1.26,1.41,2.09,.36,.83,.54,1.75,.54,2.79v.05c0,1.03-.18,1.96-.54,2.79Zm-.76-2.79c0-.83-.13-1.59-.4-2.28-.27-.68-.63-1.26-1.09-1.74-.46-.47-.99-.84-1.6-1.1s-1.25-.39-1.92-.39-1.32,.13-1.94,.4-1.18,.64-1.67,1.13c-.49,.48-.87,1.06-1.17,1.72-.29,.67-.44,1.41-.44,2.22v.05c0,.82,.15,1.56,.44,2.24,.29,.67,.68,1.25,1.17,1.72,.48,.48,1.04,.85,1.67,1.11,.63,.27,1.27,.4,1.94,.4,.7,0,1.36-.13,1.97-.38,.61-.25,1.14-.61,1.59-1.08,.45-.47,.81-1.04,1.07-1.71,.26-.68,.39-1.44,.39-2.29v-.05Z"/><path class="cls-1" d="M330.43,46.3c-.73,0-1.43,.14-2.1,.41-.67,.28-1.25,.68-1.76,1.22-.51,.54-.91,1.21-1.21,2-.3,.79-.45,1.71-.45,2.74v5.22h-1.22v-12.75h1.22v3.63c.25-.57,.57-1.09,.95-1.58,.38-.48,.82-.9,1.3-1.24s1.01-.6,1.59-.78c.58-.17,1.18-.25,1.81-.24v1.35h-.13Z"/><path class="cls-1" d="M334.01,54.14c.3,.61,.68,1.14,1.13,1.57s.96,.76,1.54,.98c.58,.22,1.18,.34,1.82,.34,1,0,1.85-.19,2.54-.58,.69-.38,1.31-.86,1.84-1.42l.85,.75c-.65,.7-1.39,1.28-2.22,1.74s-1.85,.69-3.07,.69c-.84,0-1.63-.16-2.39-.47-.76-.32-1.43-.77-2-1.35-.58-.58-1.03-1.28-1.37-2.1s-.5-1.72-.5-2.72v-.05c0-.92,.15-1.78,.46-2.59s.73-1.51,1.28-2.11c.54-.6,1.18-1.08,1.91-1.43,.73-.35,1.53-.52,2.4-.52s1.71,.17,2.42,.51,1.33,.81,1.84,1.41c.51,.6,.9,1.3,1.17,2.11,.28,.81,.41,1.69,.41,2.64v.28s0,.13-.02,.22h-10.58c.05,.8,.23,1.5,.53,2.11Zm8.77-3.21c-.05-.65-.18-1.27-.39-1.86-.21-.59-.5-1.12-.88-1.57-.38-.46-.84-.83-1.39-1.1-.55-.27-1.2-.41-1.93-.41-.64,0-1.23,.13-1.78,.38s-1.03,.6-1.44,1.04c-.41,.44-.75,.97-1.01,1.58-.27,.61-.43,1.26-.48,1.96h9.3Z"/><path class="cls-1" d="M357.36,57.9v-7.58c0-1.32-.35-2.37-1.05-3.16s-1.7-1.19-3-1.19c-.63,0-1.22,.11-1.75,.34-.53,.23-1,.54-1.4,.94s-.71,.88-.94,1.44c-.23,.56-.34,1.17-.34,1.84v7.38h-1.22v-12.75h1.22v2.38c.43-.75,1.02-1.38,1.75-1.9,.73-.52,1.68-.77,2.85-.77,.8,0,1.52,.13,2.15,.39,.63,.26,1.17,.62,1.61,1.09,.44,.47,.77,1.02,1,1.66s.34,1.35,.34,2.11v7.8h-1.22Z"/><path class="cls-1" d="M368.32,58.01c-.33,.08-.69,.11-1.09,.11-.5,0-.97-.07-1.4-.2-.43-.13-.81-.35-1.14-.64-.33-.29-.58-.66-.76-1.1-.18-.44-.27-.96-.27-1.56v-8.35h-1.85v-1.13h1.85v-4.08h1.23v4.08h4.47v1.13h-4.47v8.21c0,.92,.24,1.55,.71,1.92,.48,.37,1.09,.55,1.84,.55,.32,0,.62-.03,.9-.09,.28-.06,.61-.17,.97-.33v1.15c-.33,.15-.66,.26-.99,.34Z"/><path class="cls-1" d="M373.01,41.83v-1.67h1.52v1.67h-1.52Zm.15,16.08v-12.75h1.23v12.75h-1.23Z"/><path class="cls-1" d="M387.79,57.48c-.83,.48-1.82,.72-2.99,.72-.92,0-1.77-.18-2.56-.54-.79-.36-1.48-.84-2.06-1.44-.58-.6-1.04-1.3-1.36-2.1-.33-.8-.49-1.65-.49-2.55v-.05c0-.9,.16-1.75,.49-2.55,.33-.8,.78-1.51,1.36-2.13,.58-.62,1.27-1.1,2.06-1.46,.79-.36,1.65-.54,2.56-.54,.6,0,1.15,.06,1.64,.19,.49,.13,.95,.3,1.36,.52,.42,.22,.8,.47,1.14,.76,.34,.28,.66,.58,.96,.9l-.88,.9c-.55-.57-1.16-1.06-1.83-1.47-.67-.42-1.47-.63-2.42-.63-.73,0-1.41,.14-2.04,.42s-1.17,.67-1.63,1.16c-.46,.49-.82,1.07-1.09,1.73-.27,.66-.4,1.38-.4,2.14v.05c0,.76,.14,1.48,.41,2.15s.65,1.26,1.13,1.75c.47,.5,1.03,.89,1.66,1.17s1.32,.42,2.05,.42c.9,0,1.7-.2,2.41-.61,.71-.41,1.33-.91,1.86-1.51l.85,.75c-.65,.73-1.39,1.34-2.21,1.83Z"/><path class="cls-1" d="M394.06,54.14c.3,.61,.68,1.14,1.13,1.57s.97,.76,1.54,.98c.58,.22,1.18,.34,1.82,.34,1,0,1.85-.19,2.54-.58,.69-.38,1.31-.86,1.84-1.42l.85,.75c-.65,.7-1.39,1.28-2.22,1.74-.83,.46-1.85,.69-3.07,.69-.83,0-1.63-.16-2.39-.47s-1.43-.77-2-1.35c-.58-.58-1.03-1.28-1.37-2.1-.33-.82-.5-1.72-.5-2.72v-.05c0-.92,.15-1.78,.46-2.59,.31-.81,.73-1.51,1.27-2.11,.54-.6,1.18-1.08,1.91-1.43,.73-.35,1.53-.52,2.4-.52s1.71,.17,2.42,.51,1.33,.81,1.84,1.41c.51,.6,.9,1.3,1.17,2.11,.27,.81,.41,1.69,.41,2.64v.28s0,.13-.03,.22h-10.58c.05,.8,.23,1.5,.53,2.11Zm8.77-3.21c-.05-.65-.18-1.27-.39-1.86-.21-.59-.5-1.12-.88-1.57-.38-.46-.84-.83-1.39-1.1-.55-.27-1.19-.41-1.93-.41-.63,0-1.23,.13-1.78,.38-.55,.25-1.03,.6-1.44,1.04-.41,.44-.75,.97-1.02,1.58-.27,.61-.43,1.26-.48,1.96h9.3Z"/><path class="cls-1" d="M415.89,55.97c-.22,.46-.54,.85-.94,1.17s-.87,.57-1.4,.75c-.53,.17-1.11,.26-1.72,.26-.93,0-1.87-.17-2.8-.52-.93-.35-1.74-.8-2.42-1.35l.72-.97c.7,.53,1.43,.95,2.2,1.24,.77,.29,1.56,.44,2.38,.44,.87,0,1.6-.22,2.19-.65s.89-1.02,.89-1.77v-.05c0-.37-.09-.68-.28-.95s-.43-.5-.75-.7c-.32-.2-.68-.37-1.08-.5s-.83-.27-1.27-.4c-.52-.15-1.04-.31-1.56-.47-.53-.17-1-.38-1.41-.64s-.75-.58-1.01-.96-.39-.86-.39-1.42v-.05c0-.52,.1-.99,.31-1.41,.21-.42,.5-.79,.86-1.11,.37-.32,.81-.56,1.33-.74,.52-.17,1.08-.26,1.7-.26,.77,0,1.55,.13,2.36,.38,.81,.26,1.53,.6,2.16,1.04l-.65,1.03c-.58-.38-1.21-.69-1.89-.92-.68-.23-1.36-.35-2.04-.35-.88,0-1.59,.21-2.11,.64-.53,.42-.79,.95-.79,1.58v.05c0,.35,.1,.65,.3,.91,.2,.26,.46,.48,.79,.66,.33,.18,.7,.34,1.14,.49,.43,.14,.88,.28,1.32,.41,.52,.15,1.03,.31,1.53,.49,.5,.17,.95,.4,1.35,.67,.4,.27,.72,.6,.96,.99,.24,.38,.36,.86,.36,1.42v.05c0,.57-.11,1.08-.34,1.53Z"/><path class="cls-1" d="M429.83,57.9v-7.58c0-1.32-.35-2.37-1.05-3.16s-1.7-1.19-3-1.19c-.63,0-1.22,.11-1.75,.34-.53,.23-1,.54-1.4,.94s-.71,.88-.94,1.44c-.23,.56-.34,1.17-.34,1.84v7.38h-1.22v-18.25h1.22v7.88c.43-.75,1.02-1.38,1.75-1.9,.73-.52,1.68-.77,2.85-.77,.8,0,1.52,.13,2.15,.39,.63,.26,1.17,.62,1.61,1.09,.44,.47,.77,1.02,1,1.66s.34,1.35,.34,2.11v7.8h-1.22Z"/><path class="cls-1" d="M435.48,41.83v-1.67h1.52v1.67h-1.52Zm.15,16.08v-12.75h1.23v12.75h-1.23Z"/><path class="cls-1" d="M453.82,54.31c-.36,.83-.83,1.53-1.41,2.1s-1.25,1.02-1.99,1.33c-.74,.31-1.5,.46-2.26,.46-.63,0-1.22-.08-1.75-.25-.53-.17-1.01-.39-1.44-.67-.42-.28-.81-.61-1.15-.97-.34-.37-.65-.75-.91-1.15v6.75h-1.22v-16.75h1.22v2.85c.27-.42,.58-.82,.93-1.2,.35-.38,.74-.72,1.16-1,.42-.28,.9-.51,1.42-.69,.52-.18,1.1-.26,1.74-.26,.77,0,1.52,.15,2.26,.45,.74,.3,1.4,.73,1.99,1.3s1.05,1.26,1.41,2.09c.36,.83,.54,1.75,.54,2.79v.05c0,1.03-.18,1.96-.54,2.79Zm-.76-2.79c0-.83-.13-1.59-.4-2.28-.27-.68-.63-1.26-1.09-1.74-.46-.47-.99-.84-1.6-1.1s-1.25-.39-1.92-.39-1.32,.13-1.94,.4-1.18,.64-1.67,1.13-.87,1.06-1.17,1.72c-.29,.67-.44,1.41-.44,2.22v.05c0,.82,.15,1.56,.44,2.24,.29,.67,.68,1.25,1.17,1.72,.48,.48,1.04,.85,1.67,1.11,.63,.27,1.27,.4,1.94,.4s1.36-.13,1.97-.38c.61-.25,1.14-.61,1.59-1.08,.45-.47,.8-1.04,1.06-1.71,.26-.68,.39-1.44,.39-2.29v-.05Z"/><path class="cls-1" d="M477.89,57.42c-1.17,.52-2.48,.79-3.91,.79s-2.62-.24-3.71-.71c-1.09-.48-2.01-1.12-2.76-1.94s-1.32-1.77-1.72-2.86c-.4-1.09-.6-2.25-.6-3.49v-.05c0-1.18,.2-2.32,.61-3.41s.99-2.05,1.75-2.89c.76-.83,1.67-1.5,2.74-2s2.25-.75,3.55-.75c.72,0,1.37,.05,1.96,.15,.59,.1,1.14,.25,1.65,.45s.99,.44,1.45,.73,.9,.61,1.34,.97l-.85,.97c-.68-.6-1.46-1.1-2.34-1.5-.88-.4-1.97-.6-3.29-.6-1.07,0-2.04,.21-2.92,.62s-1.65,.98-2.29,1.7c-.64,.72-1.14,1.55-1.49,2.5-.35,.95-.53,1.95-.53,3v.05c0,1.13,.17,2.18,.51,3.15s.84,1.8,1.49,2.5,1.44,1.25,2.36,1.65,1.97,.6,3.14,.6c.55,0,1.09-.05,1.63-.16,.53-.11,1.04-.25,1.51-.44,.48-.18,.92-.39,1.34-.63,.42-.24,.78-.49,1.1-.76v-5.01h-5.85v-1.17h7.1v6.73c-.8,.7-1.79,1.31-2.96,1.83Z"/><path class="cls-1" d="M492.03,46.3c-.73,0-1.43,.14-2.1,.41-.67,.28-1.25,.68-1.76,1.22-.51,.54-.91,1.21-1.21,2-.3,.79-.45,1.71-.45,2.74v5.22h-1.22v-12.75h1.22v3.63c.25-.57,.57-1.09,.95-1.58s.82-.9,1.3-1.24,1.01-.6,1.59-.78c.57-.17,1.18-.25,1.81-.24v1.35h-.13Z"/><path class="cls-1" d="M506.39,54.08c-.33,.8-.78,1.51-1.38,2.13-.59,.62-1.29,1.1-2.09,1.46-.8,.36-1.68,.54-2.63,.54s-1.82-.18-2.61-.54-1.48-.84-2.06-1.44c-.58-.6-1.04-1.3-1.36-2.1-.33-.8-.49-1.65-.49-2.55v-.05c0-.9,.16-1.75,.49-2.55s.78-1.51,1.38-2.13c.59-.62,1.29-1.1,2.09-1.46,.8-.36,1.68-.54,2.63-.54s1.82,.18,2.61,.54c.79,.36,1.48,.84,2.06,1.44,.58,.6,1.04,1.3,1.36,2.1,.33,.8,.49,1.65,.49,2.55v.05c0,.9-.16,1.75-.49,2.55Zm-.81-2.55c0-.76-.13-1.48-.4-2.15-.27-.67-.64-1.26-1.12-1.75-.48-.5-1.04-.89-1.68-1.17-.65-.28-1.34-.42-2.07-.42s-1.45,.15-2.1,.44c-.65,.29-1.2,.68-1.66,1.17-.46,.49-.82,1.07-1.08,1.73-.26,.66-.39,1.37-.39,2.12v.05c0,.76,.13,1.48,.4,2.15,.27,.67,.64,1.26,1.12,1.75,.48,.5,1.04,.89,1.68,1.17s1.34,.42,2.07,.42,1.45-.14,2.1-.44c.64-.29,1.2-.68,1.66-1.17,.46-.49,.82-1.07,1.08-1.73,.26-.66,.39-1.37,.39-2.12v-.05Z"/><path class="cls-1" d="M520.1,57.9v-2.38c-.43,.75-1.02,1.38-1.75,1.9-.73,.52-1.68,.77-2.85,.77-.8,0-1.52-.13-2.15-.39-.63-.26-1.17-.62-1.61-1.09-.44-.47-.78-1.02-1-1.66-.23-.64-.34-1.35-.34-2.11v-7.8h1.22v7.58c0,1.32,.35,2.37,1.05,3.16,.7,.79,1.7,1.19,3,1.19,.62,0,1.2-.11,1.74-.34,.54-.23,1.01-.54,1.41-.94,.4-.4,.71-.88,.94-1.44s.34-1.17,.34-1.84v-7.38h1.23v12.75h-1.23Z"/><path class="cls-1" d="M538.12,54.31c-.36,.83-.83,1.53-1.41,2.1s-1.25,1.02-1.99,1.33c-.74,.31-1.5,.46-2.26,.46-.63,0-1.22-.08-1.75-.25-.53-.17-1.01-.39-1.44-.67s-.81-.61-1.15-.97c-.34-.37-.65-.75-.91-1.15v6.75h-1.22v-16.75h1.22v2.85c.27-.42,.58-.82,.92-1.2,.35-.38,.74-.72,1.16-1s.9-.51,1.42-.69c.53-.18,1.1-.26,1.74-.26,.77,0,1.52,.15,2.26,.45,.74,.3,1.4,.73,1.99,1.3s1.05,1.26,1.41,2.09c.36,.83,.54,1.75,.54,2.79v.05c0,1.03-.18,1.96-.54,2.79Zm-.76-2.79c0-.83-.13-1.59-.4-2.28-.27-.68-.63-1.26-1.09-1.74-.46-.47-.99-.84-1.6-1.1-.61-.26-1.25-.39-1.92-.39s-1.32,.13-1.94,.4c-.63,.27-1.18,.64-1.67,1.13-.49,.48-.87,1.06-1.17,1.72-.29,.67-.44,1.41-.44,2.22v.05c0,.82,.15,1.56,.44,2.24s.68,1.25,1.17,1.72c.48,.48,1.04,.85,1.67,1.11,.63,.27,1.27,.4,1.94,.4,.7,0,1.36-.13,1.97-.38,.61-.25,1.14-.61,1.59-1.08,.45-.47,.81-1.04,1.07-1.71,.26-.68,.39-1.44,.39-2.29v-.05Z"/></g><line class="cls-2" x1="225.5" y1="12.11" x2="225.5" y2="59.11"/></g></g></svg>